<svg xmlns="http://www.w3.org/2000/svg" viewBox="0 0 33.81 33.81" id="pallet"><g data-name="Layer 2"><g data-name="Layer 1"><path d="M16.91,2.73c7.81,0,14.18,5.51,14.18,12.3a6.69,6.69,0,0,1-6.67,6.66H21.08A5.53,5.53,0,0,0,17,30.93.09.09,0,0,1,17,31a.09.09,0,0,1,0,.07.08.08,0,0,1-.06,0,14.18,14.18,0,0,1,0-28.36m0-2.73a16.91,16.91,0,1,0,0,33.81A2.82,2.82,0,0,0,19,29.1a2.8,2.8,0,0,1,2.09-4.68h3.34A9.4,9.4,0,0,0,33.81,15c0-8.3-7.57-15-16.9-15Z"></path><path d="M7.62 19.43a2.82 2.82 0 112.82-2.82h0a2.82 2.82 0 01-2.81 2.82zM12.15 10.93A2.82 2.82 0 1115 8.11h0a2.81 2.81 0 01-2.81 2.82zM21.6 11a2.82 2.82 0 112.82-2.82h0A2.81 2.81 0 0121.61 11zM25.5 18.82A2.82 2.82 0 1128.31 16h0a2.81 2.81 0 01-2.8 2.82z"></path></g></g></svg>